<?xml version="1.0" encoding="UTF-8"?>
<svg id="Layer_2" data-name="Layer 2" xmlns="http://www.w3.org/2000/svg" viewBox="0 0 38.3 38.3">
  <defs>
    <style>
      .cls-1 {
        fill: #f7931e;
      }
    </style>
  </defs>
  <g id="Layer_1-2" data-name="Layer 1">
    <g>
      <circle class="cls-1" cx="19.23" cy="19.26" r="9.37"/>
      <rect class="cls-1" x="17.39" y="0" width="3.57" height="7.91" rx="1.53" ry="1.53"/>
      <rect class="cls-1" x="17.39" y="0" width="3.57" height="7.91" rx="1.53" ry="1.53"/>
      <rect class="cls-1" x="17.33" y="30.38" width="3.57" height="7.91" rx="1.53" ry="1.53"/>
      <rect class="cls-1" x="2.17" y="15.16" width="3.57" height="7.91" rx="1.53" ry="1.53" transform="translate(-15.16 23.07) rotate(-90)"/>
      <rect class="cls-1" x="32.55" y="15.22" width="3.57" height="7.91" rx="1.53" ry="1.53" transform="translate(15.16 53.52) rotate(-90)"/>
      <rect class="cls-1" x="6.6" y="25.91" width="3.57" height="7.91" rx="1.53" ry="1.53" transform="translate(-6.81 56.92) rotate(-135)"/>
      <rect class="cls-1" x="28.13" y="4.47" width="3.57" height="7.91" rx="1.53" ry="1.53" transform="translate(45.1 35.54) rotate(-135)"/>
      <rect class="cls-1" x="6.64" y="4.43" width="3.57" height="7.91" rx="1.53" ry="1.53" transform="translate(-3.46 8.42) rotate(-45)"/>
      <rect class="cls-1" x="28.08" y="25.96" width="3.57" height="7.91" rx="1.53" ry="1.53" transform="translate(-12.4 29.88) rotate(-45)"/>
    </g>
  </g>
</svg>